# xmcd
#
# Track frame offsets:
#	182
#	3312
#	24552
#	40225
#	64327
#	83030
#	98902
#	118810
#	137810
#	145077
#	164257
#	182922
#	202415
#	214037
#	236405
#	251385
#
# Disc length: 3848 seconds
#
# Revision: 0
# Processed by: cddbd v1.4PL0 Copyright (c) Steve Scherf et al.
# Submitted via: EasyCDDAExtractor 5.0.5.1
#
DISCID=e30f0610
DTITLE=Angie Stone - Black Diamond
DYEAR=2000
DGENRE=Soul
TTITLE0=Feedom (Intro)
TTITLE1=No More Rain (In This Cloud)
TTITLE2=Everyday
TTITLE3=Bone 2 Pick (Wit U)
TTITLE4=Life Story
TTITLE5=Visions
TTITLE6=Coulda Been You
TTITLE7=Just A Pimp
TTITLE8=Black Diamonds and Blue Pearls (Interlude)
TTITLE9=Green Grass Vapours
TTITLE10=Baby Slow Down
TTITLE11=Love Junkie
TTITLE12=Trouble Man
TTITLE13=My Lovin' Will Give You Something
TTITLE14=Heaven Help
TTITLE15=Life Story (Jazz Hop Mix)
EXTD=\n\n YEAR: 2000 ID3G:   0
EXTT0=
EXTT1=
EXTT2=
EXTT3=
EXTT4=
EXTT5=
EXTT6=
EXTT7=
EXTT8=
EXTT9=
EXTT10=
EXTT11=
EXTT12=
EXTT13=
EXTT14=
EXTT15=
PLAYORDER=
